<?xml version="1.0" encoding="UTF-8"?>
<svg data-bbox="32 27 36 59" xmlns="http://www.w3.org/2000/svg" width="100" height="100" data-type="ugc">
    <g>
        <path fill="#5fbcd3" d="M56 80a6 6 0 1 1-12 0 6 6 0 0 1 12 0"/>
        <path stroke-width="2" stroke="#5fbcd3" d="M50 80V50"/>
        <path fill="#5fbcd3" d="M54 50a4 4 0 1 1-8 0 4 4 0 0 1 8 0"/>
        <path stroke-width="2" stroke="#5fbcd3" d="M50 50 35 30"/>
        <path stroke-width="2" stroke="#5fbcd3" d="m50 50 15-20"/>
        <path fill="#5fbcd3" d="M38 30a3 3 0 1 1-6 0 3 3 0 0 1 6 0"/>
        <path fill="#5fbcd3" d="M68 30a3 3 0 1 1-6 0 3 3 0 0 1 6 0"/>
    </g>
</svg>
